<svg id="Layer_1" data-name="Layer 1" xmlns="http://www.w3.org/2000/svg" viewBox="0 0 583.06 604.75"><defs><style>.cls-1{fill:#09f;}</style></defs><path class="cls-1" d="M1017.71,824.12V666.89H951.24a33.88,33.88,0,0,1,1.3-4.36c7-14.76,13.94-29.56,21.21-44.2.89-1.8,3.56-3.85,5.43-3.87,34.31-.22,68.62-.15,102.93-.12a22.16,22.16,0,0,1,3.06.53V824.12Z" transform="translate(-740.5 -219.36)"/><path class="cls-1" d="M975.93,506.61h147.34v39H954.77l-40,83.86c-5.16,10.84-10.48,21.61-15.4,32.57-1.63,3.64-3.69,4.74-7.61,4.69-16.75-.24-33.51-.19-50.27,0-3.73,0-5.47-.77-6.26-4.89-3.44-18-7.46-35.85-11-53.81a13.79,13.79,0,0,1,1.14-8.35q43.27-85,86.77-169.9c1.75-3.44,4.17-4.44,7.52-5.55,12.18-4,19.89-.56,26.45,11,8.05,14.15,18.32,27.07,27.9,40.32,2.7,3.74,4,7.35,3.46,12C976.77,493.5,976.49,499.6,975.93,506.61Z" transform="translate(-740.5 -219.36)"/><path class="cls-1" d="M988.17,802.62l-23.38,10.22c-1-2.11-2-4-2.81-5.88-12.3-28.15-24.68-56.26-36.79-84.49-1.82-4.25-4-5.8-8.73-5.71-17.54.32-35.1.26-52.65,0-4,0-5.84,1.33-7.45,4.93-12.71,28.39-25.66,56.69-38.54,85-.88,1.94-1.85,3.85-3,6.3L791.5,802.45C798,788.08,804.35,774,810.73,759.9s12.66-27.9,19.52-43c-8.89,0-16.87-.23-24.83.09-4.11.17-5.76-1.16-6.77-5.22Q770.08,596.82,741.23,482c-.28-1.14-.4-2.31-.73-4.26l36.93-9.32c.83,2.84,1.62,5.19,2.22,7.6q24.48,98,48.82,196c1.2,4.84,3,6.57,8.21,6.49,21.1-.33,42.21-.28,63.31,0,4.46,0,6.55-1.5,8.4-5.41,17-36,34.22-71.82,51.17-107.81,1.87-4,4-5.37,8.38-5.35,44,.18,88,.11,131.94.11h6.18v22.46h-6.78c-39,0-78.1.07-117.15-.11-4.4,0-6.53,1.34-8.4,5.33-13.36,28.53-27,56.93-40.55,85.38-.66,1.39-1.21,2.83-2.2,5.14h46.51v38.6H950.75Z" transform="translate(-740.5 -219.36)"/><path class="cls-1" d="M973.62,416.5a74.93,74.93,0,0,1,74.56-75.09c41.09-.14,74.86,33.55,74.92,74.73a75,75,0,0,1-74.57,75.1C1007.48,491.48,973.77,457.85,973.62,416.5Z" transform="translate(-740.5 -219.36)"/><path class="cls-1" d="M1255.93,333.3c-.78-5-1.42-9-2.15-13.65l55.17-9.73c2.38,7.51,3.63,13.85-1.25,20.91-8.14,11.76-15.17,24.29-23.3,37.53l36.78-6.29,2.38,13.54-60.23,10.74c-2.54-7.33-3.71-13.81,1.3-21,8.07-11.61,15-24,23.16-37.36Z" transform="translate(-740.5 -219.36)"/><path class="cls-1" d="M1080.72,258.07H1132c1.47,7.69.26,13.79-5.47,19.51-8.89,8.86-16.82,18.68-26.06,29.11h34v12.63h-56c-.9-6.59-1.41-12.51,4.19-18.18,9.25-9.35,17.6-19.58,27.25-30.48h-29.27Z" transform="translate(-740.5 -219.36)"/><path class="cls-1" d="M1240.16,445.6v10h-44.34c-1.24-5.84-.39-10.56,4-15,7-7.13,13.38-14.89,20.8-23.25h-22.78v-10.1h40.24c1.21,5.22,1.1,9.7-3,14-7.17,7.49-13.86,15.45-21.81,24.39Z" transform="translate(-740.5 -219.36)"/><path class="cls-1" d="M1180.19,336c1.31-6.49,4.92-9.57,10.41-11.53,8.11-2.9,15.94-6.56,25.27-10.47l-19-9.41,3.81-8.29,33.49,16.14c-1.27,5.67-3.94,9.21-9.42,11.16-8.64,3.1-17,7-26.3,10.88l22,10.82-3.77,8.36Z" transform="translate(-740.5 -219.36)"/><path class="cls-1" d="M1287.3,277.38c.4,2,.73,3.67,1.24,6.19l-28.31,5.08c-2.67-11.7,8.2-17.19,10.44-26.81l-13.39,1.78-1.14-6,25.73-4.63c2.85,11.76-8.48,17.3-10.32,26.89Z" transform="translate(-740.5 -219.36)"/><path class="cls-1" d="M1215.39,226.73l-9.26-5c2.12-1.07,3.84-2.65,4.76-2.28,4.84,2,9.48,4.41,14.18,6.69l.57,1.91c-2.57,1.57-5.06,3.28-7.72,4.66s-5.71,2.52-9.71,4.26l11.5,6.34c-2.78.93-4.64,2.26-5.76,1.8-5-2.09-9.88-4.67-15.4-7.38C1201.73,230.07,1210.22,231.26,1215.39,226.73Z" transform="translate(-740.5 -219.36)"/><path class="cls-1" d="M1172.51,282.59c-1.47.34-3.24,1.38-4.38.9-5.07-2.11-10-4.65-15.45-7.3,3-7.75,11.82-6.24,16.6-11.14l-7.72-4.24c1.94-4.39,6-3.38,17.91,4.41-3.18,7.15-11.52,6-16.72,10.51l9.51,5.15C1172.34,281.45,1172.43,282,1172.51,282.59Z" transform="translate(-740.5 -219.36)"/><path class="cls-1" d="M1161.5,362.27c2-4.34,6.91-3.1,17.89,4.49-3,7.15-11.41,5.79-16.08,10.13,1.34,3.89,9.75,1.9,7.94,9.7l-18.59-8.92c3.11-7.76,11.74-6.39,16.78-11.05Z" transform="translate(-740.5 -219.36)"/></svg>